<svg xmlns="http://www.w3.org/2000/svg" xmlns:xlink="http://www.w3.org/1999/xlink" width="1080" zoomAndPan="magnify" viewBox="0 0 810 809.999993" height="1080" preserveAspectRatio="xMidYMid meet" version="1.0"><defs><g/><clipPath id="id1"><path d="M 132 136.128906 L 680 136.128906 L 680 682.917969 L 132 682.917969 Z M 132 136.128906 " clip-rule="nonzero"/></clipPath><clipPath id="id2"><path d="M 247 184.542969 L 619.777344 184.542969 L 619.777344 625.542969 L 247 625.542969 Z M 247 184.542969 " clip-rule="nonzero"/></clipPath><clipPath id="id3"><path d="M 190.027344 209 L 505 209 L 505 583 L 190.027344 583 Z M 190.027344 209 " clip-rule="nonzero"/></clipPath><clipPath id="id4"><path d="M 230.511719 267.855469 L 578.511719 267.855469 L 578.511719 560.355469 L 230.511719 560.355469 Z M 230.511719 267.855469 " clip-rule="nonzero"/></clipPath><clipPath id="id5"><path d="M 332 455 L 485 455 L 485 546 L 332 546 Z M 332 455 " clip-rule="nonzero"/></clipPath><clipPath id="id6"><path d="M 311.476562 512.9375 L 354.242188 404.839844 L 494.421875 460.296875 L 451.65625 568.394531 Z M 311.476562 512.9375 " clip-rule="nonzero"/></clipPath><clipPath id="id7"><path d="M 311.476562 512.9375 L 354.242188 404.839844 L 494.421875 460.296875 L 451.65625 568.394531 Z M 311.476562 512.9375 " clip-rule="nonzero"/></clipPath></defs><g clip-path="url(#id1)"><path fill="#fefbd8" d="M 671.042969 409.523438 C 671.042969 380.992188 685.265625 350.710938 676.511719 325.023438 C 667.542969 298.351562 637.128906 281.953125 620.390625 259.761719 C 603.433594 237.351562 596.433594 204.667969 573.128906 188.378906 C 550.046875 172.3125 515.585938 175.917969 487.910156 167.171875 C 461.105469 158.867188 435.617188 136.128906 405.96875 136.128906 C 376.320312 136.128906 350.722656 158.757812 324.027344 167.171875 C 296.351562 175.808594 261.78125 172.203125 238.699219 188.378906 C 215.394531 204.667969 208.394531 237.351562 191.4375 259.761719 C 174.589844 281.953125 144.285156 298.351562 135.207031 325.023438 C 126.5625 350.710938 140.675781 380.992188 140.675781 409.523438 C 140.675781 438.054688 126.453125 468.335938 135.207031 494.023438 C 144.175781 520.695312 174.589844 537.09375 191.328125 559.285156 C 208.285156 581.695312 215.285156 614.378906 238.589844 630.667969 C 261.671875 646.84375 296.132812 643.238281 323.917969 651.875 C 350.722656 660.179688 376.210938 682.917969 405.859375 682.917969 C 435.507812 682.917969 461.105469 660.289062 487.800781 651.875 C 515.476562 643.238281 550.046875 646.84375 573.128906 630.667969 C 596.433594 614.378906 603.433594 581.695312 620.390625 559.285156 C 637.238281 537.09375 667.542969 520.695312 676.511719 494.023438 C 685.265625 468.226562 671.042969 437.945312 671.042969 409.523438 " fill-opacity="1" fill-rule="nonzero"/></g><path fill="#b1cbbb" d="M 572.019531 389.488281 L 421.890625 299.75 C 420.324219 298.816406 418.570312 298.339844 416.8125 298.328125 C 415.050781 298.3125 413.292969 298.761719 411.710938 299.671875 L 260.296875 387.21875 C 256.402344 389.46875 254.789062 393.660156 255.40625 397.53125 L 255.1875 427.410156 C 252.496094 428.035156 250.558594 429.726562 250.546875 431.734375 L 250.207031 478.253906 C 250.191406 480.808594 253.300781 482.90625 257.160156 482.9375 C 261.019531 482.964844 264.160156 480.914062 264.179688 478.355469 L 264.519531 431.835938 C 264.53125 429.832031 262.621094 428.113281 259.9375 427.445312 L 260.105469 404.507812 C 260.269531 404.605469 260.4375 404.699219 260.609375 404.796875 L 339.054688 446.5 L 338.863281 472.9375 L 339.378906 472.941406 L 339.390625 474.050781 L 416.136719 483.425781 L 484.980469 474 L 492.214844 474.050781 L 492.226562 473.007812 L 492.742188 472.9375 L 492.558594 447.539062 L 571.453125 407.054688 C 578.472656 403.453125 578.792969 393.535156 572.019531 389.488281 " fill-opacity="1" fill-rule="nonzero"/><path fill="#b1cbbb" d="M 415.464844 483.425781 L 416.265625 373.742188 L 492.742188 401.625 L 492.214844 474.050781 L 415.464844 483.425781 " fill-opacity="1" fill-rule="nonzero"/><g clip-path="url(#id2)"><path fill="#83a691" d="M 349.1875 192.675781 C 366.582031 187.398438 384.933594 184.722656 403.4375 184.542969 L 406.910156 184.523438 C 408.066406 184.539062 409.226562 184.574219 410.382812 184.601562 L 413.867188 184.691406 L 417.335938 184.898438 C 418.496094 184.96875 419.65625 185.027344 420.820312 185.113281 L 424.292969 185.425781 L 426.03125 185.589844 C 426.609375 185.644531 427.191406 185.683594 427.769531 185.765625 L 431.234375 186.199219 C 440.484375 187.371094 449.679688 189.203125 458.75 191.585938 C 459.316406 191.734375 459.890625 191.871094 460.449219 192.039062 L 462.140625 192.519531 L 465.527344 193.496094 L 468.890625 194.558594 C 470.011719 194.914062 471.132812 195.265625 472.246094 195.660156 L 475.582031 196.808594 C 476.144531 197 476.691406 197.203125 477.246094 197.414062 L 478.898438 198.039062 L 480.554688 198.660156 C 481.109375 198.867188 481.660156 199.078125 482.203125 199.300781 L 485.484375 200.636719 C 486.585938 201.070312 487.664062 201.546875 488.746094 202.015625 C 489.828125 202.488281 490.914062 202.960938 491.992188 203.441406 L 495.207031 204.953125 L 496.8125 205.710938 L 498.402344 206.5 L 501.578125 208.09375 C 502.632812 208.636719 503.675781 209.203125 504.722656 209.757812 C 506.828125 210.855469 508.871094 212.058594 510.9375 213.230469 C 511.457031 213.519531 511.964844 213.828125 512.472656 214.132812 L 514 215.050781 L 515.527344 215.976562 L 516.285156 216.433594 L 517.039062 216.914062 L 520.050781 218.832031 C 521.058594 219.460938 522.03125 220.148438 523.023438 220.808594 C 526.988281 223.449219 530.820312 226.285156 534.613281 229.183594 L 537.414062 231.410156 C 537.882812 231.785156 538.355469 232.148438 538.816406 232.527344 L 540.1875 233.675781 C 541.105469 234.445312 542.023438 235.207031 542.933594 235.980469 L 545.628906 238.347656 L 546.972656 239.539062 L 548.289062 240.753906 L 550.921875 243.195312 L 553.496094 245.699219 L 554.785156 246.957031 L 556.039062 248.238281 L 558.554688 250.808594 L 561 253.441406 L 562.226562 254.757812 L 563.421875 256.101562 L 565.804688 258.800781 L 568.121094 261.554688 L 569.285156 262.933594 C 569.664062 263.394531 570.039062 263.863281 570.414062 264.332031 L 572.660156 267.148438 C 573.398438 268.097656 574.121094 269.0625 574.847656 270.019531 C 580.667969 277.671875 585.917969 285.765625 590.703125 294.140625 C 600.1875 310.925781 607.570312 328.984375 612.414062 347.753906 C 617.320312 366.511719 619.679688 385.960938 619.53125 405.40625 C 619.457031 410.269531 619.300781 415.128906 618.910156 419.976562 L 618.777344 421.796875 L 618.703125 422.703125 L 618.613281 423.613281 L 618.253906 427.242188 C 618.144531 428.449219 617.964844 429.65625 617.824219 430.863281 C 617.667969 432.066406 617.527344 433.273438 617.351562 434.480469 C 615.964844 444.101562 613.992188 453.644531 611.402344 463.011719 C 608.789062 472.359375 605.605469 481.558594 601.839844 490.523438 C 598.03125 499.464844 593.695312 508.191406 588.769531 516.574219 C 587.515625 518.652344 586.292969 520.753906 584.972656 522.792969 C 584.316406 523.820312 583.679688 524.851562 583.011719 525.867188 L 580.984375 528.894531 C 580.636719 529.394531 580.304688 529.90625 579.957031 530.402344 L 578.90625 531.886719 L 576.800781 534.863281 L 574.617188 537.777344 L 573.527344 539.238281 L 570.152344 543.527344 C 569.382812 544.46875 568.601562 545.398438 567.832031 546.332031 L 566.667969 547.734375 C 566.28125 548.203125 565.875 548.648438 565.480469 549.109375 L 563.082031 551.851562 C 559.835938 555.449219 556.519531 558.996094 553.042969 562.371094 C 551.335938 564.09375 549.550781 565.726562 547.785156 567.386719 C 547.347656 567.800781 546.894531 568.207031 546.441406 568.605469 L 545.085938 569.816406 L 543.730469 571.023438 L 543.050781 571.621094 L 542.359375 572.214844 L 539.589844 574.558594 L 538.894531 575.144531 L 538.191406 575.710938 L 535.363281 577.992188 L 534.65625 578.554688 L 533.941406 579.109375 L 531.0625 581.316406 L 530.335938 581.863281 L 529.609375 582.398438 L 528.140625 583.464844 L 526.675781 584.527344 L 525.941406 585.0625 L 525.199219 585.578125 L 522.214844 587.636719 C 521.230469 588.332031 520.207031 588.972656 519.203125 589.636719 L 517.6875 590.628906 C 517.183594 590.960938 516.675781 591.289062 516.160156 591.605469 L 513.085938 593.511719 C 512.066406 594.15625 511.015625 594.746094 509.976562 595.363281 L 508.414062 596.277344 C 507.894531 596.582031 507.375 596.886719 506.847656 597.175781 C 498.445312 601.902344 489.773438 606.121094 480.847656 609.699219 C 476.398438 611.523438 471.867188 613.128906 467.320312 614.65625 C 465.027344 615.375 462.757812 616.136719 460.445312 616.78125 C 459.292969 617.113281 458.144531 617.457031 456.992188 617.777344 L 453.515625 618.691406 C 452.9375 618.84375 452.359375 619.007812 451.777344 619.140625 L 450.03125 619.554688 C 448.863281 619.832031 447.699219 620.117188 446.535156 620.378906 L 443.023438 621.117188 C 442.4375 621.242188 441.855469 621.371094 441.265625 621.480469 L 439.503906 621.808594 L 435.980469 622.457031 L 432.441406 623.019531 L 430.667969 623.296875 L 428.894531 623.535156 L 425.34375 624.003906 L 421.785156 624.386719 L 420.007812 624.578125 L 418.226562 624.726562 L 414.664062 625.015625 C 413.472656 625.09375 412.289062 625.152344 411.097656 625.21875 L 409.316406 625.320312 C 408.722656 625.355469 408.125 625.359375 407.53125 625.382812 L 403.964844 625.488281 C 402.777344 625.515625 401.585938 625.5 400.398438 625.511719 C 399.210938 625.515625 398.023438 625.535156 396.835938 625.496094 L 393.273438 625.425781 C 392.683594 625.414062 392.089844 625.386719 391.496094 625.363281 L 389.71875 625.28125 L 387.941406 625.195312 L 387.054688 625.152344 L 386.167969 625.085938 L 382.621094 624.824219 C 381.441406 624.75 380.261719 624.617188 379.085938 624.5 C 377.90625 624.382812 376.730469 624.28125 375.554688 624.140625 L 372.035156 623.699219 C 371.449219 623.625 370.859375 623.558594 370.277344 623.472656 L 368.527344 623.199219 L 365.023438 622.667969 L 361.539062 622.042969 L 359.800781 621.726562 C 359.222656 621.621094 358.644531 621.492188 358.066406 621.378906 L 354.609375 620.660156 C 353.457031 620.417969 352.3125 620.128906 351.167969 619.863281 L 349.449219 619.464844 L 348.59375 619.257812 L 347.738281 619.035156 C 345.464844 618.433594 343.1875 617.871094 340.941406 617.183594 C 331.925781 614.5625 323.105469 611.414062 314.574219 607.632812 C 310.3125 605.738281 306.101562 603.757812 301.992188 601.582031 L 298.914062 599.960938 C 297.894531 599.402344 296.890625 598.820312 295.878906 598.253906 L 294.367188 597.398438 C 293.863281 597.109375 293.359375 596.828125 292.863281 596.523438 L 289.890625 594.726562 L 288.410156 593.828125 C 287.917969 593.527344 287.433594 593.203125 286.949219 592.886719 L 284.039062 591.003906 C 283.0625 590.390625 282.125 589.714844 281.171875 589.066406 L 278.328125 587.097656 L 275.542969 585.050781 L 274.148438 584.035156 L 273.457031 583.519531 L 272.777344 582.988281 L 270.0625 580.859375 L 268.710938 579.796875 L 267.382812 578.695312 L 264.746094 576.488281 C 264.300781 576.128906 263.875 575.746094 263.445312 575.367188 L 262.160156 574.230469 C 261.304688 573.460938 260.441406 572.714844 259.601562 571.941406 L 257.105469 569.59375 L 255.859375 568.414062 C 255.445312 568.027344 255.050781 567.613281 254.644531 567.210938 L 252.234375 564.785156 C 251.421875 563.988281 250.660156 563.140625 249.878906 562.308594 C 249.097656 561.480469 248.324219 560.644531 247.558594 559.8125 C 248.480469 560.476562 249.402344 561.140625 250.316406 561.808594 C 251.242188 562.472656 252.140625 563.152344 253.085938 563.78125 L 255.875 565.710938 C 256.34375 566.03125 256.796875 566.367188 257.273438 566.671875 L 258.6875 567.605469 L 261.511719 569.464844 C 262.460938 570.074219 263.421875 570.65625 264.375 571.253906 L 265.808594 572.144531 C 266.285156 572.445312 266.757812 572.746094 267.242188 573.027344 L 270.144531 574.734375 L 271.59375 575.585938 L 273.0625 576.40625 L 275.996094 578.042969 L 276.726562 578.445312 L 277.46875 578.832031 L 278.957031 579.613281 L 281.921875 581.164062 L 284.925781 582.636719 C 285.925781 583.125 286.914062 583.636719 287.933594 584.089844 L 290.964844 585.480469 C 291.46875 585.710938 291.96875 585.949219 292.480469 586.167969 L 294.011719 586.824219 L 297.066406 588.140625 C 297.570312 588.367188 298.089844 588.5625 298.605469 588.765625 L 300.148438 589.378906 C 301.179688 589.785156 302.203125 590.207031 303.234375 590.605469 L 306.347656 591.75 C 308.410156 592.539062 310.515625 593.210938 312.601562 593.921875 C 313.121094 594.097656 313.640625 594.285156 314.164062 594.453125 L 315.746094 594.941406 L 318.898438 595.914062 C 327.324219 598.453125 335.886719 600.429688 344.484375 601.917969 C 346.628906 602.316406 348.792969 602.617188 350.941406 602.949219 L 351.75 603.066406 L 352.558594 603.175781 L 354.179688 603.378906 C 355.257812 603.507812 356.335938 603.660156 357.417969 603.769531 L 360.65625 604.097656 C 361.199219 604.148438 361.738281 604.210938 362.277344 604.257812 L 363.902344 604.382812 L 367.144531 604.636719 L 372.007812 604.894531 C 372.550781 604.921875 373.09375 604.925781 373.632812 604.945312 L 376.875 605.046875 C 377.953125 605.074219 379.035156 605.058594 380.117188 605.074219 C 381.195312 605.074219 382.273438 605.101562 383.351562 605.070312 L 386.589844 605.007812 L 387.394531 604.992188 L 388.203125 604.957031 L 389.816406 604.886719 L 391.433594 604.820312 C 391.96875 604.800781 392.507812 604.777344 393.042969 604.734375 L 396.265625 604.527344 C 397.339844 604.46875 398.410156 604.355469 399.480469 604.265625 C 400.550781 604.160156 401.621094 604.078125 402.6875 603.964844 L 405.886719 603.597656 C 406.421875 603.53125 406.953125 603.484375 407.488281 603.414062 L 409.082031 603.1875 L 412.265625 602.742188 L 415.441406 602.234375 L 417.023438 601.976562 L 418.605469 601.679688 L 421.757812 601.09375 L 424.898438 600.433594 L 426.46875 600.105469 L 428.03125 599.742188 L 431.148438 599.007812 L 434.25 598.207031 L 435.800781 597.804688 C 436.3125 597.667969 436.820312 597.515625 437.335938 597.371094 L 440.414062 596.496094 C 441.4375 596.195312 442.453125 595.871094 443.472656 595.558594 L 444.996094 595.085938 C 445.503906 594.929688 446.003906 594.746094 446.511719 594.582031 L 449.539062 593.570312 C 450.550781 593.226562 451.542969 592.851562 452.546875 592.492188 L 454.046875 591.949219 C 454.546875 591.777344 455.039062 591.566406 455.535156 591.382812 L 458.507812 590.234375 C 462.445312 588.625 466.363281 586.984375 470.1875 585.152344 C 477.878906 581.566406 485.292969 577.445312 492.464844 572.964844 C 496.027344 570.6875 499.554688 568.367188 502.96875 565.882812 C 504.695312 564.667969 506.367188 563.382812 508.050781 562.117188 L 508.683594 561.640625 L 509.304688 561.152344 L 510.542969 560.167969 L 511.785156 559.191406 L 512.40625 558.699219 L 513.015625 558.195312 C 519.53125 552.859375 525.75 547.160156 531.546875 541.074219 C 534.472656 538.058594 537.242188 534.902344 539.984375 531.722656 L 541.988281 529.296875 C 542.320312 528.890625 542.664062 528.496094 542.988281 528.078125 L 543.960938 526.84375 L 545.910156 524.375 L 547.796875 521.859375 L 548.742188 520.601562 L 549.652344 519.320312 L 551.484375 516.765625 L 553.25 514.167969 L 554.132812 512.867188 C 554.421875 512.433594 554.703125 511.984375 554.984375 511.546875 L 556.691406 508.90625 C 557.253906 508.019531 557.785156 507.117188 558.335938 506.230469 C 559.453125 504.460938 560.472656 502.625 561.527344 500.816406 C 561.792969 500.367188 562.042969 499.90625 562.292969 499.445312 L 563.046875 498.066406 L 563.800781 496.691406 L 564.179688 496.003906 L 564.542969 495.308594 C 565.492188 493.441406 566.484375 491.59375 567.375 489.699219 C 567.828125 488.757812 568.292969 487.820312 568.742188 486.871094 L 570.042969 484.019531 L 570.695312 482.589844 L 571.308594 481.144531 L 572.542969 478.25 C 572.941406 477.285156 573.320312 476.304688 573.710938 475.335938 C 574.09375 474.359375 574.5 473.394531 574.851562 472.40625 C 575.570312 470.445312 576.320312 468.484375 576.976562 466.492188 C 577.3125 465.5 577.667969 464.515625 577.992188 463.519531 L 578.933594 460.515625 L 579.410156 459.019531 L 579.84375 457.507812 L 580.714844 454.488281 C 581.003906 453.476562 581.253906 452.460938 581.523438 451.445312 L 581.921875 449.925781 L 582.121094 449.167969 L 582.300781 448.40625 C 582.773438 446.359375 583.289062 444.332031 583.695312 442.277344 L 584.339844 439.203125 L 584.914062 436.113281 L 585.195312 434.570312 C 585.289062 434.050781 585.363281 433.535156 585.445312 433.015625 L 585.945312 429.917969 C 586.101562 428.882812 586.226562 427.847656 586.375 426.808594 C 586.507812 425.769531 586.667969 424.734375 586.769531 423.691406 C 586.992188 421.609375 587.246094 419.53125 587.402344 417.441406 C 587.796875 413.269531 587.964844 409.085938 588.113281 404.902344 C 588.484375 388.152344 586.84375 371.328125 583.09375 354.933594 C 579.390625 338.527344 573.59375 322.558594 565.988281 307.453125 L 564.527344 304.632812 C 564.050781 303.683594 563.535156 302.761719 563.03125 301.832031 C 562.515625 300.90625 562.019531 299.972656 561.496094 299.054688 L 559.910156 296.304688 C 559.640625 295.84375 559.386719 295.378906 559.109375 294.929688 L 558.28125 293.574219 C 557.730469 292.667969 557.1875 291.757812 556.625 290.855469 L 554.910156 288.183594 C 554.621094 287.734375 554.34375 287.28125 554.046875 286.84375 L 553.15625 285.523438 C 552.5625 284.644531 551.976562 283.757812 551.375 282.882812 L 549.53125 280.285156 C 549.226562 279.851562 548.929688 279.410156 548.613281 278.984375 L 547.660156 277.707031 L 545.757812 275.148438 L 543.796875 272.636719 L 542.816406 271.375 L 541.808594 270.136719 L 539.785156 267.667969 L 537.707031 265.242188 L 536.667969 264.027344 L 535.601562 262.835938 L 533.464844 260.457031 L 531.273438 258.125 L 530.175781 256.960938 L 529.050781 255.816406 L 526.804688 253.539062 L 524.503906 251.300781 L 523.355469 250.1875 C 522.96875 249.816406 522.570312 249.457031 522.179688 249.097656 L 519.820312 246.917969 C 516.628906 244.066406 513.394531 241.25 510.023438 238.59375 C 508.359375 237.238281 506.640625 235.953125 504.9375 234.640625 L 504.300781 234.148438 L 503.648438 233.675781 L 502.339844 232.734375 L 501.035156 231.78125 C 500.601562 231.46875 500.167969 231.148438 499.722656 230.847656 C 492.660156 225.933594 485.324219 221.34375 477.664062 217.289062 L 474.789062 215.773438 C 474.3125 215.515625 473.824219 215.277344 473.335938 215.039062 L 471.878906 214.320312 L 470.417969 213.597656 L 469.6875 213.238281 C 469.445312 213.117188 469.195312 213.007812 468.953125 212.890625 L 465.996094 211.511719 C 465.015625 211.039062 464.019531 210.609375 463.019531 210.171875 L 460.023438 208.867188 L 456.996094 207.636719 L 455.484375 207.011719 C 454.980469 206.804688 454.464844 206.621094 453.953125 206.425781 L 450.890625 205.253906 C 450.640625 205.15625 450.382812 205.058594 450.125 204.96875 L 449.351562 204.695312 L 447.804688 204.15625 L 444.707031 203.070312 C 444.449219 202.984375 444.191406 202.882812 443.929688 202.804688 L 443.148438 202.554688 L 441.582031 202.054688 L 438.445312 201.058594 C 437.921875 200.882812 437.398438 200.734375 436.871094 200.585938 L 435.289062 200.140625 L 432.117188 199.234375 C 431.589844 199.078125 431.054688 198.949219 430.527344 198.8125 L 428.925781 198.410156 L 425.722656 197.59375 C 425.191406 197.453125 424.652344 197.347656 424.113281 197.222656 L 422.5 196.871094 L 419.273438 196.144531 C 418.195312 195.921875 417.109375 195.726562 416.023438 195.511719 L 412.765625 194.886719 L 409.492188 194.351562 C 408.398438 194.175781 407.308594 193.992188 406.210938 193.824219 L 402.914062 193.390625 C 394.109375 192.226562 385.199219 191.597656 376.230469 191.484375 L 374.546875 191.453125 L 372.859375 191.46875 L 369.488281 191.496094 C 368.363281 191.492188 367.242188 191.546875 366.117188 191.589844 L 362.738281 191.707031 L 361.886719 191.734375 L 361.046875 191.789062 L 359.355469 191.894531 L 355.96875 192.105469 C 353.710938 192.269531 351.457031 192.5 349.1875 192.675781 " fill-opacity="1" fill-rule="nonzero"/></g><g clip-path="url(#id3)"><path fill="#b1cbbb" d="M 419.574219 574.65625 C 412.3125 577.027344 404.816406 578.800781 397.199219 580.058594 C 389.578125 581.304688 381.828125 582.015625 374.027344 582.191406 L 371.097656 582.246094 C 370.125 582.246094 369.148438 582.226562 368.171875 582.214844 L 365.234375 582.171875 L 362.304688 582.035156 C 361.324219 581.988281 360.34375 581.949219 359.363281 581.890625 L 356.433594 581.660156 C 355.453125 581.574219 354.472656 581.511719 353.496094 581.40625 L 350.566406 581.074219 C 342.746094 580.171875 334.96875 578.707031 327.285156 576.765625 C 326.804688 576.644531 326.320312 576.535156 325.84375 576.402344 L 324.410156 576.007812 L 321.539062 575.207031 L 318.691406 574.332031 C 317.742188 574.042969 316.785156 573.757812 315.847656 573.433594 L 313.015625 572.484375 C 312.542969 572.332031 312.074219 572.15625 311.605469 571.984375 L 308.800781 570.953125 C 308.332031 570.785156 307.863281 570.613281 307.398438 570.425781 L 304.617188 569.320312 C 303.679688 568.960938 302.765625 568.566406 301.84375 568.175781 C 300.925781 567.785156 300.003906 567.394531 299.089844 566.988281 L 296.359375 565.738281 L 294.996094 565.105469 L 293.644531 564.449219 L 290.945312 563.117188 C 290.050781 562.667969 289.164062 562.195312 288.273438 561.730469 C 286.484375 560.816406 284.75 559.8125 282.988281 558.835938 C 282.546875 558.589844 282.117188 558.335938 281.683594 558.078125 L 280.386719 557.308594 L 279.085938 556.539062 L 278.4375 556.152344 L 277.796875 555.753906 L 275.238281 554.144531 C 274.378906 553.621094 273.550781 553.042969 272.707031 552.492188 C 269.332031 550.28125 266.070312 547.898438 262.839844 545.457031 L 260.453125 543.585938 C 260.058594 543.273438 259.652344 542.96875 259.261719 542.644531 L 258.089844 541.679688 L 255.75 539.742188 L 253.457031 537.75 L 252.3125 536.75 L 251.1875 535.722656 L 248.945312 533.671875 L 246.75 531.558594 L 245.652344 530.5 L 244.582031 529.417969 L 242.441406 527.25 L 240.351562 525.03125 L 239.308594 523.917969 L 238.285156 522.785156 L 236.253906 520.503906 C 233.601562 517.417969 230.984375 514.289062 228.535156 511.027344 C 223.566406 504.554688 219.082031 497.707031 214.992188 490.613281 C 206.882812 476.398438 200.5625 461.082031 196.40625 445.148438 C 192.203125 429.222656 190.160156 412.695312 190.265625 396.167969 C 190.347656 387.902344 190.953125 379.640625 192.097656 371.453125 C 193.269531 363.269531 194.945312 355.160156 197.144531 347.203125 C 199.367188 339.253906 202.074219 331.4375 205.28125 323.820312 C 208.523438 316.21875 212.214844 308.808594 216.410156 301.691406 C 217.476562 299.914062 218.519531 298.132812 219.644531 296.402344 C 220.203125 295.53125 220.746094 294.652344 221.316406 293.792969 L 223.042969 291.222656 C 223.335938 290.796875 223.617188 290.363281 223.914062 289.945312 L 224.808594 288.679688 L 226.605469 286.15625 L 228.460938 283.683594 L 229.394531 282.441406 L 230.351562 281.230469 L 232.269531 278.804688 L 234.246094 276.421875 L 235.234375 275.234375 C 235.566406 274.835938 235.914062 274.457031 236.25 274.066406 L 238.289062 271.742188 C 241.054688 268.6875 243.878906 265.683594 246.839844 262.820312 C 248.296875 261.367188 249.816406 259.976562 251.320312 258.574219 C 251.695312 258.222656 252.078125 257.878906 252.464844 257.539062 L 253.617188 256.515625 C 254.390625 255.839844 255.148438 255.144531 255.941406 254.484375 L 258.296875 252.5 L 258.890625 252.007812 L 259.492188 251.523438 L 260.691406 250.558594 L 261.894531 249.597656 L 262.496094 249.113281 L 263.109375 248.652344 L 265.558594 246.785156 L 266.171875 246.320312 L 266.796875 245.871094 L 268.042969 244.96875 L 269.292969 244.066406 C 269.707031 243.765625 270.125 243.46875 270.550781 243.179688 L 273.085938 241.441406 C 273.925781 240.855469 274.796875 240.3125 275.65625 239.75 L 276.945312 238.914062 C 277.375 238.632812 277.804688 238.355469 278.242188 238.089844 L 280.859375 236.480469 C 281.726562 235.9375 282.621094 235.4375 283.503906 234.921875 L 284.832031 234.148438 C 285.273438 233.894531 285.714844 233.632812 286.164062 233.390625 C 293.316406 229.410156 300.691406 225.855469 308.277344 222.859375 C 312.058594 221.332031 315.910156 219.984375 319.773438 218.710938 C 321.71875 218.109375 323.648438 217.472656 325.613281 216.941406 C 326.589844 216.664062 327.566406 216.378906 328.546875 216.113281 L 331.496094 215.347656 C 331.988281 215.230469 332.480469 215.089844 332.972656 214.980469 L 334.457031 214.632812 C 335.445312 214.40625 336.433594 214.175781 337.425781 213.957031 L 340.40625 213.34375 C 340.902344 213.246094 341.398438 213.136719 341.894531 213.046875 L 343.390625 212.777344 L 346.382812 212.25 L 349.386719 211.785156 L 350.886719 211.5625 L 352.394531 211.375 L 355.402344 210.992188 L 358.421875 210.6875 L 359.929688 210.539062 L 361.4375 210.421875 L 364.460938 210.195312 L 368.992188 209.964844 C 369.492188 209.945312 370 209.9375 370.503906 209.921875 L 373.523438 209.859375 C 374.53125 209.84375 375.539062 209.859375 376.546875 209.859375 C 377.550781 209.867188 378.554688 209.859375 379.5625 209.894531 L 382.574219 209.980469 C 383.078125 209.988281 383.578125 210.015625 384.082031 210.042969 L 385.585938 210.125 L 387.089844 210.203125 L 387.839844 210.253906 L 388.589844 210.308594 L 391.589844 210.558594 C 392.589844 210.628906 393.582031 210.753906 394.582031 210.855469 C 395.578125 210.960938 396.574219 211.058594 397.566406 211.179688 L 400.539062 211.582031 C 401.035156 211.648438 401.53125 211.710938 402.027344 211.785156 L 403.507812 212.03125 L 406.464844 212.507812 L 409.40625 213.058594 L 410.875 213.335938 C 411.363281 213.433594 411.851562 213.539062 412.335938 213.648438 L 415.253906 214.28125 C 416.226562 214.492188 417.195312 214.746094 418.160156 214.980469 L 419.609375 215.332031 L 420.332031 215.515625 L 421.050781 215.710938 C 422.96875 216.234375 424.886719 216.730469 426.78125 217.324219 C 434.375 219.617188 441.800781 222.355469 448.964844 225.625 C 452.535156 227.265625 456.074219 228.976562 459.519531 230.855469 L 462.097656 232.253906 C 462.953125 232.734375 463.792969 233.234375 464.640625 233.726562 L 465.902344 234.464844 C 466.324219 234.710938 466.75 234.949219 467.160156 235.210938 L 469.648438 236.761719 L 470.890625 237.53125 C 471.300781 237.796875 471.703125 238.074219 472.109375 238.339844 L 474.539062 239.960938 C 475.355469 240.488281 476.140625 241.070312 476.933594 241.628906 L 479.308594 243.320312 L 481.632812 245.074219 L 482.789062 245.949219 L 483.363281 246.390625 L 483.933594 246.847656 L 486.191406 248.671875 L 487.320312 249.582031 L 488.421875 250.527344 L 490.617188 252.417969 C 490.980469 252.726562 491.332031 253.050781 491.691406 253.375 L 492.757812 254.351562 C 493.46875 255.003906 494.183594 255.648438 494.882812 256.3125 L 496.949219 258.324219 C 497.636719 258.996094 498.324219 259.65625 498.984375 260.355469 L 500.980469 262.429688 C 501.644531 263.117188 502.273438 263.84375 502.917969 264.546875 C 503.5625 265.257812 504.199219 265.972656 504.828125 266.6875 C 504.039062 266.144531 503.253906 265.601562 502.480469 265.050781 C 501.691406 264.507812 500.925781 263.953125 500.121094 263.433594 L 497.753906 261.855469 C 497.355469 261.597656 496.96875 261.320312 496.570312 261.070312 L 495.363281 260.3125 L 492.96875 258.789062 C 492.167969 258.289062 491.347656 257.8125 490.542969 257.328125 L 489.328125 256.597656 C 488.929688 256.355469 488.527344 256.105469 488.113281 255.878906 L 485.65625 254.484375 L 484.4375 253.789062 L 483.195312 253.121094 L 480.71875 251.792969 L 480.097656 251.460938 L 479.46875 251.144531 L 478.21875 250.511719 L 475.710938 249.253906 L 473.183594 248.058594 C 472.332031 247.660156 471.507812 247.242188 470.648438 246.878906 L 468.097656 245.75 C 467.667969 245.5625 467.246094 245.367188 466.820312 245.191406 L 465.527344 244.660156 L 462.960938 243.601562 C 462.53125 243.414062 462.097656 243.257812 461.664062 243.089844 L 460.367188 242.59375 L 457.777344 241.609375 L 455.164062 240.6875 C 453.429688 240.050781 451.664062 239.511719 449.917969 238.941406 C 449.476562 238.796875 449.042969 238.648438 448.605469 238.515625 L 447.28125 238.125 L 444.636719 237.34375 C 437.578125 235.3125 430.417969 233.753906 423.238281 232.589844 C 421.445312 232.28125 419.640625 232.050781 417.847656 231.792969 L 417.175781 231.699219 L 416.5 231.625 L 415.148438 231.472656 C 414.246094 231.371094 413.351562 231.25 412.453125 231.171875 L 409.746094 230.925781 C 409.296875 230.890625 408.84375 230.839844 408.398438 230.808594 L 407.042969 230.71875 L 404.34375 230.535156 L 401.640625 230.421875 L 400.292969 230.363281 C 399.84375 230.347656 399.390625 230.347656 398.941406 230.335938 L 396.246094 230.277344 C 395.347656 230.265625 394.449219 230.285156 393.550781 230.285156 C 392.652344 230.289062 391.757812 230.277344 390.859375 230.3125 L 388.167969 230.390625 L 387.5 230.40625 L 386.828125 230.445312 L 385.488281 230.515625 L 384.144531 230.585938 C 383.699219 230.609375 383.253906 230.628906 382.804688 230.667969 L 380.132812 230.867188 C 379.242188 230.921875 378.351562 231.023438 377.460938 231.109375 C 376.574219 231.203125 375.6875 231.28125 374.800781 231.382812 L 372.144531 231.714844 C 371.703125 231.765625 371.261719 231.8125 370.820312 231.878906 L 369.496094 232.070312 L 366.855469 232.464844 L 364.226562 232.910156 L 362.914062 233.140625 L 361.601562 233.390625 L 358.988281 233.902344 L 356.386719 234.46875 L 355.089844 234.753906 L 353.796875 235.070312 L 351.214844 235.691406 L 348.648438 236.378906 L 347.363281 236.722656 C 346.9375 236.839844 346.515625 236.96875 346.089844 237.089844 L 343.546875 237.835938 C 342.699219 238.097656 341.859375 238.367188 341.015625 238.632812 L 339.753906 239.035156 C 339.335938 239.167969 338.917969 239.320312 338.5 239.460938 L 335.996094 240.316406 C 335.164062 240.613281 334.339844 240.925781 333.511719 241.226562 C 332.683594 241.53125 331.855469 241.832031 331.039062 242.167969 L 328.582031 243.132812 C 325.332031 244.488281 322.09375 245.871094 318.933594 247.410156 C 312.585938 250.421875 306.464844 253.867188 300.550781 257.605469 C 297.609375 259.5 294.699219 261.4375 291.886719 263.507812 C 290.460938 264.519531 289.085938 265.589844 287.695312 266.640625 C 287.34375 266.902344 287.003906 267.171875 286.664062 267.445312 L 285.640625 268.261719 L 284.617188 269.074219 L 284.105469 269.484375 L 283.605469 269.902344 C 278.234375 274.339844 273.113281 279.070312 268.339844 284.117188 C 265.929688 286.617188 263.644531 289.234375 261.390625 291.871094 L 259.738281 293.882812 C 259.464844 294.214844 259.183594 294.542969 258.917969 294.886719 L 258.117188 295.914062 L 256.511719 297.957031 L 254.957031 300.035156 L 254.179688 301.078125 L 253.429688 302.136719 L 251.921875 304.253906 L 250.46875 306.402344 L 249.738281 307.480469 C 249.5 307.835938 249.269531 308.203125 249.035156 308.570312 L 247.636719 310.753906 C 247.175781 311.480469 246.734375 312.230469 246.277344 312.964844 C 245.359375 314.433594 244.523438 315.949219 243.652344 317.441406 C 243.433594 317.8125 243.226562 318.195312 243.023438 318.574219 L 242.402344 319.714844 L 241.777344 320.851562 C 241.570312 321.230469 241.363281 321.609375 241.171875 321.996094 C 240.386719 323.535156 239.570312 325.0625 238.839844 326.628906 C 238.464844 327.410156 238.078125 328.183594 237.710938 328.964844 L 236.636719 331.328125 L 236.101562 332.507812 L 235.59375 333.703125 L 234.578125 336.089844 C 234.246094 336.890625 233.9375 337.695312 233.613281 338.496094 C 233.296875 339.300781 232.964844 340.101562 232.675781 340.917969 C 232.078125 342.542969 231.460938 344.160156 230.921875 345.804688 C 230.644531 346.621094 230.351562 347.4375 230.082031 348.261719 L 229.304688 350.742188 L 228.914062 351.980469 L 228.554688 353.226562 L 227.832031 355.71875 C 227.59375 356.554688 227.390625 357.394531 227.164062 358.230469 L 226.671875 360.117188 L 226.523438 360.75 C 226.132812 362.433594 225.707031 364.109375 225.371094 365.804688 L 224.835938 368.347656 L 224.363281 370.894531 L 224.125 372.171875 C 224.050781 372.597656 223.988281 373.027344 223.917969 373.457031 L 223.507812 376.015625 C 223.371094 376.867188 223.269531 377.726562 223.148438 378.585938 C 223.039062 379.441406 222.902344 380.296875 222.820312 381.152344 C 222.632812 382.875 222.421875 384.589844 222.292969 386.3125 C 221.960938 389.761719 221.816406 393.214844 221.691406 396.671875 C 221.355469 410.5 222.675781 424.40625 225.730469 437.96875 C 228.742188 451.542969 233.476562 464.765625 239.707031 477.308594 C 240.515625 478.855469 241.28125 480.433594 242.128906 481.96875 C 242.550781 482.734375 242.957031 483.511719 243.382812 484.28125 L 244.6875 486.5625 C 245.113281 487.328125 245.566406 488.078125 246.019531 488.832031 C 246.472656 489.582031 246.917969 490.34375 247.378906 491.085938 L 248.789062 493.3125 C 249.023438 493.683594 249.253906 494.058594 249.496094 494.425781 L 250.226562 495.523438 C 250.710938 496.253906 251.191406 496.992188 251.6875 497.714844 L 253.199219 499.878906 C 253.453125 500.242188 253.695312 500.605469 253.957031 500.960938 L 256.300781 504.160156 L 257.910156 506.25 L 258.714844 507.300781 L 259.546875 508.328125 L 261.207031 510.394531 L 262.917969 512.414062 L 263.769531 513.429688 L 264.648438 514.417969 L 266.40625 516.40625 L 268.207031 518.351562 L 269.109375 519.328125 L 271.882812 522.1875 L 273.777344 524.058594 L 274.722656 524.992188 C 275.039062 525.300781 275.367188 525.597656 275.691406 525.902344 L 277.632812 527.726562 C 280.261719 530.113281 282.925781 532.476562 285.707031 534.707031 C 287.078125 535.84375 288.496094 536.925781 289.902344 538.027344 L 290.429688 538.4375 L 290.96875 538.835938 L 292.042969 539.632812 L 293.121094 540.429688 C 293.480469 540.695312 293.835938 540.960938 294.207031 541.214844 C 300.035156 545.351562 306.097656 549.230469 312.433594 552.667969 L 314.816406 553.953125 C 315.210938 554.171875 315.613281 554.375 316.015625 554.578125 L 317.222656 555.1875 L 318.433594 555.804688 C 318.835938 556.007812 319.238281 556.214844 319.648438 556.402344 L 322.09375 557.582031 C 322.910156 557.980469 323.734375 558.347656 324.5625 558.71875 L 327.042969 559.835938 L 329.558594 560.886719 L 330.8125 561.421875 C 331.230469 561.601562 331.65625 561.761719 332.078125 561.925781 C 338.839844 564.621094 345.785156 566.957031 352.875 568.863281 L 355.539062 569.578125 C 356.429688 569.8125 357.324219 570 358.222656 570.214844 L 360.910156 570.859375 C 361.808594 571.054688 362.714844 571.230469 363.617188 571.421875 L 366.332031 571.980469 L 369.0625 572.460938 C 369.976562 572.621094 370.886719 572.789062 371.800781 572.941406 L 374.550781 573.34375 C 381.898438 574.417969 389.351562 575.058594 396.867188 575.269531 L 398.28125 575.316406 L 399.6875 575.324219 L 402.515625 575.347656 C 403.460938 575.367188 404.402344 575.339844 405.351562 575.320312 L 408.1875 575.269531 L 408.898438 575.253906 L 409.605469 575.21875 L 411.027344 575.160156 L 413.875 575.035156 C 415.769531 574.925781 417.667969 574.769531 419.574219 574.65625 " fill-opacity="1" fill-rule="nonzero"/></g><g clip-path="url(#id4)"><path fill="#fefbd8" d="M 404.511719 267.855469 C 308.414062 267.855469 230.511719 333.335938 230.511719 414.105469 C 230.511719 494.878906 308.414062 560.355469 404.511719 560.355469 C 500.605469 560.355469 578.507812 494.878906 578.507812 414.105469 C 578.507812 333.335938 500.605469 267.855469 404.511719 267.855469 " fill-opacity="1" fill-rule="nonzero"/></g><g clip-path="url(#id5)"><g clip-path="url(#id6)"><g clip-path="url(#id7)"><path fill="#83a691" d="M 379.695312 517.609375 C 354.347656 507.578125 337.421875 485.371094 332.949219 460.3125 C 328.804688 493.871094 347.496094 527.25 380.308594 540.234375 C 419.273438 555.648438 463.402344 536.457031 478.867188 497.371094 C 484.269531 483.710938 485.457031 469.429688 483.054688 455.972656 C 482.277344 462.265625 480.695312 468.570312 478.253906 474.742188 C 462.789062 513.832031 418.660156 533.023438 379.695312 517.609375 Z M 379.695312 517.609375 " fill-opacity="1" fill-rule="nonzero"/></g></g></g><g fill="#93b4a0" fill-opacity="0.4"><g transform="translate(240.657846, 437.72912)"><g><path d="M 147.875 -78.207031 L 85.410156 -78.207031 L 85.410156 -52.585938 L 118.566406 -52.585938 C 113.375 -36.003906 98.972656 -23.949219 80.21875 -23.949219 C 56.605469 -23.949219 39.855469 -43.207031 39.855469 -66.820312 C 39.855469 -90.433594 56.605469 -109.691406 80.21875 -109.691406 C 88.589844 -109.691406 96.125 -107.347656 102.15625 -103.160156 L 120.910156 -121.917969 C 109.523438 -130.289062 95.457031 -135.3125 80.21875 -135.3125 C 42.371094 -135.3125 11.722656 -104.667969 11.722656 -66.820312 C 11.722656 -28.972656 42.371094 1.675781 80.21875 1.675781 C 118.066406 1.675781 148.710938 -28.972656 148.710938 -66.820312 C 148.710938 -70.671875 148.375 -74.523438 147.875 -78.207031 Z M 147.875 -78.207031 "/></g></g></g><g fill="#93b4a0" fill-opacity="0.4"><g transform="translate(401.085343, 437.72912)"><g><path d="M 74.355469 -135.648438 C 36.507812 -135.648438 5.863281 -105.003906 5.863281 -67.15625 C 5.863281 -29.308594 36.507812 1.339844 74.355469 1.339844 C 112.203125 1.339844 142.851562 -29.308594 142.851562 -67.15625 C 142.851562 -105.003906 112.203125 -135.648438 74.355469 -135.648438 Z M 74.355469 -110.027344 C 98.136719 -110.027344 114.882812 -90.765625 114.882812 -67.15625 C 114.882812 -43.542969 98.136719 -24.28125 74.355469 -24.28125 C 50.742188 -24.28125 33.996094 -43.542969 33.996094 -67.15625 C 33.996094 -90.765625 50.742188 -110.027344 74.355469 -110.027344 Z M 74.355469 -110.027344 "/></g></g></g><g fill="#93b4a0" fill-opacity="1"><g transform="translate(250.429678, 433.978064)"><g><path d="M 147.875 -78.207031 L 85.410156 -78.207031 L 85.410156 -52.585938 L 118.566406 -52.585938 C 113.375 -36.003906 98.972656 -23.949219 80.21875 -23.949219 C 56.605469 -23.949219 39.855469 -43.207031 39.855469 -66.820312 C 39.855469 -90.433594 56.605469 -109.691406 80.21875 -109.691406 C 88.589844 -109.691406 96.125 -107.347656 102.15625 -103.160156 L 120.910156 -121.917969 C 109.523438 -130.289062 95.457031 -135.3125 80.21875 -135.3125 C 42.371094 -135.3125 11.722656 -104.667969 11.722656 -66.820312 C 11.722656 -28.972656 42.371094 1.675781 80.21875 1.675781 C 118.066406 1.675781 148.710938 -28.972656 148.710938 -66.820312 C 148.710938 -70.671875 148.375 -74.523438 147.875 -78.207031 Z M 147.875 -78.207031 "/></g></g></g><g fill="#93b4a0" fill-opacity="1"><g transform="translate(410.857175, 433.978064)"><g><path d="M 74.355469 -135.648438 C 36.507812 -135.648438 5.863281 -105.003906 5.863281 -67.15625 C 5.863281 -29.308594 36.507812 1.339844 74.355469 1.339844 C 112.203125 1.339844 142.851562 -29.308594 142.851562 -67.15625 C 142.851562 -105.003906 112.203125 -135.648438 74.355469 -135.648438 Z M 74.355469 -110.027344 C 98.136719 -110.027344 114.882812 -90.765625 114.882812 -67.15625 C 114.882812 -43.542969 98.136719 -24.28125 74.355469 -24.28125 C 50.742188 -24.28125 33.996094 -43.542969 33.996094 -67.15625 C 33.996094 -90.765625 50.742188 -110.027344 74.355469 -110.027344 Z M 74.355469 -110.027344 "/></g></g></g></svg>